# MagicaVoxel @ Ephtracy

# group
o 

# material
mtllib Flashlight.mtl
usemtl palette

# normals
vn -1 0 0
vn 1 0 0
vn 0 0 1
vn 0 0 -1
vn 0 -1 0
vn 0 1 0

# texcoords
vt 0.970703 0.5
vt 0.974609 0.5
vt 0.978516 0.5

# verts
v 0 4.1 -0.3
v 0 4.1 -0.9
v 0 4.7 -0.3
v 0 4.7 -0.9
v 0.1 3.9 -0.4
v 0.1 3.9 -0.8
v 0.1 4.1 -0.2
v 0.1 4.1 -0.3
v 0.1 4.1 -0.4
v 0.1 4.1 -0.8
v 0.1 4.1 -0.9
v 0.1 4.1 -1
v 0.1 4.7 -0.2
v 0.1 4.7 -0.3
v 0.1 4.7 -0.9
v 0.1 4.7 -1
v 0.2 2 -0.5
v 0.2 2 -0.7
v 0.2 3.9 -0.3
v 0.2 3.9 -0.4
v 0.2 3.9 -0.5
v 0.2 3.9 -0.7
v 0.2 3.9 -0.8
v 0.2 3.9 -0.9
v 0.2 4.1 -0.1
v 0.2 4.1 -0.2
v 0.2 4.1 -0.3
v 0.2 4.1 -0.4
v 0.2 4.1 -0.8
v 0.2 4.1 -0.9
v 0.2 4.1 -1
v 0.2 4.1 -1.1
v 0.2 4.7 -0.1
v 0.2 4.7 -0.2
v 0.2 4.7 -1
v 0.2 4.7 -1.1
v 0.3 2 -0.4
v 0.3 2 -0.5
v 0.3 2 -0.7
v 0.3 2 -0.8
v 0.3 3.9 -0.2
v 0.3 3.9 -0.3
v 0.3 3.9 -0.4
v 0.3 3.9 -0.5
v 0.3 3.9 -0.7
v 0.3 3.9 -0.8
v 0.3 3.9 -0.9
v 0.3 3.9 -1
v 0.3 4.1 0
v 0.3 4.1 -0.1
v 0.3 4.1 -0.2
v 0.3 4.1 -0.3
v 0.3 4.1 -0.9
v 0.3 4.1 -1
v 0.3 4.1 -1.1
v 0.3 4.1 -1.2
v 0.3 4.7 0
v 0.3 4.7 -0.1
v 0.3 4.7 -1.1
v 0.3 4.7 -1.2
v 0.4 2 -0.3
v 0.4 2 -0.4
v 0.4 2 -0.8
v 0.4 2 -0.9
v 0.4 3.9 -0.1
v 0.4 3.9 -0.2
v 0.4 3.9 -0.3
v 0.4 3.9 -0.4
v 0.4 3.9 -0.8
v 0.4 3.9 -0.9
v 0.4 3.9 -1
v 0.4 3.9 -1.1
v 0.4 4.1 -0.1
v 0.4 4.1 -0.2
v 0.4 4.1 -1
v 0.4 4.1 -1.1
v 0.5 2 -0.2
v 0.5 2 -0.3
v 0.5 2 -0.9
v 0.5 2 -1
v 0.5 3.9 -0.2
v 0.5 3.9 -0.3
v 0.5 3.9 -0.9
v 0.5 3.9 -1
v 0.5 4.4 -0.5
v 0.5 4.4 -0.7
v 0.5 4.5 -0.5
v 0.5 4.5 -0.7
v 0.8 4.4 -0.4
v 0.8 4.4 -0.8
v 0.8 4.5 -0.2
v 0.8 4.5 -0.3
v 0.8 4.5 -0.4
v 0.8 4.5 -0.8
v 0.8 4.5 -0.9
v 0.8 4.5 -1
v 0.8 4.6 -0.2
v 0.8 4.6 -0.3
v 0.8 4.6 -0.9
v 0.8 4.6 -1
v 0.9 4.5 -0.3
v 0.9 4.5 -0.4
v 0.9 4.5 -0.8
v 0.9 4.5 -0.9
v 0.9 4.6 -0.1
v 0.9 4.6 -0.2
v 0.9 4.6 -0.3
v 0.9 4.6 -0.4
v 0.9 4.6 -0.8
v 0.9 4.6 -0.9
v 0.9 4.6 -1
v 0.9 4.6 -1.1
v 0.9 4.7 -0.1
v 0.9 4.7 -0.2
v 0.9 4.7 -1
v 0.9 4.7 -1.1
v 1 4.5 -0.4
v 1 4.5 -0.8
v 1 4.6 -0.2
v 1 4.6 -0.3
v 1 4.6 -0.4
v 1 4.6 -0.8
v 1 4.6 -0.9
v 1 4.6 -1
v 1 4.7 -0.2
v 1 4.7 -0.3
v 1 4.7 -0.9
v 1 4.7 -1
v 1.1 4.6 -0.3
v 1.1 4.6 -0.9
v 1.1 4.7 -0.3
v 1.1 4.7 -0.9
v 0.1 4.6 -0.3
v 0.1 4.6 -0.9
v 0.1 4.7 -0.3
v 0.1 4.7 -0.9
v 0.2 4.5 -0.4
v 0.2 4.5 -0.8
v 0.2 4.6 -0.2
v 0.2 4.6 -0.3
v 0.2 4.6 -0.4
v 0.2 4.6 -0.8
v 0.2 4.6 -0.9
v 0.2 4.6 -1
v 0.2 4.7 -0.2
v 0.2 4.7 -0.3
v 0.2 4.7 -0.9
v 0.2 4.7 -1
v 0.3 4.5 -0.3
v 0.3 4.5 -0.4
v 0.3 4.5 -0.8
v 0.3 4.5 -0.9
v 0.3 4.6 -0.1
v 0.3 4.6 -0.2
v 0.3 4.6 -0.3
v 0.3 4.6 -0.4
v 0.3 4.6 -0.8
v 0.3 4.6 -0.9
v 0.3 4.6 -1
v 0.3 4.6 -1.1
v 0.3 4.7 -0.1
v 0.3 4.7 -0.2
v 0.3 4.7 -1
v 0.3 4.7 -1.1
v 0.4 4.4 -0.4
v 0.4 4.4 -0.8
v 0.4 4.5 -0.2
v 0.4 4.5 -0.3
v 0.4 4.5 -0.4
v 0.4 4.5 -0.8
v 0.4 4.5 -0.9
v 0.4 4.5 -1
v 0.4 4.6 -0.2
v 0.4 4.6 -0.3
v 0.4 4.6 -0.9
v 0.4 4.6 -1
v 0.7 2 -0.2
v 0.7 2 -0.3
v 0.7 2 -0.9
v 0.7 2 -1
v 0.7 3.9 -0.2
v 0.7 3.9 -0.3
v 0.7 3.9 -0.9
v 0.7 3.9 -1
v 0.7 4.4 -0.5
v 0.7 4.4 -0.7
v 0.7 4.5 -0.5
v 0.7 4.5 -0.7
v 0.8 2 -0.3
v 0.8 2 -0.4
v 0.8 2 -0.8
v 0.8 2 -0.9
v 0.8 3.9 -0.1
v 0.8 3.9 -0.2
v 0.8 3.9 -0.3
v 0.8 3.9 -0.4
v 0.8 3.9 -0.8
v 0.8 3.9 -0.9
v 0.8 3.9 -1
v 0.8 3.9 -1.1
v 0.8 4.1 -0.1
v 0.8 4.1 -0.2
v 0.8 4.1 -1
v 0.8 4.1 -1.1
v 0.9 2 -0.4
v 0.9 2 -0.5
v 0.9 2 -0.7
v 0.9 2 -0.8
v 0.9 3.9 -0.2
v 0.9 3.9 -0.3
v 0.9 3.9 -0.4
v 0.9 3.9 -0.5
v 0.9 3.9 -0.7
v 0.9 3.9 -0.8
v 0.9 3.9 -0.9
v 0.9 3.9 -1
v 0.9 4.1 0
v 0.9 4.1 -0.1
v 0.9 4.1 -0.2
v 0.9 4.1 -0.3
v 0.9 4.1 -0.9
v 0.9 4.1 -1
v 0.9 4.1 -1.1
v 0.9 4.1 -1.2
v 0.9 4.7 0
v 0.9 4.7 -0.1
v 0.9 4.7 -1.1
v 0.9 4.7 -1.2
v 1 2 -0.5
v 1 2 -0.7
v 1 3.9 -0.3
v 1 3.9 -0.4
v 1 3.9 -0.5
v 1 3.9 -0.7
v 1 3.9 -0.8
v 1 3.9 -0.9
v 1 4.1 -0.1
v 1 4.1 -0.2
v 1 4.1 -0.3
v 1 4.1 -0.4
v 1 4.1 -0.8
v 1 4.1 -0.9
v 1 4.1 -1
v 1 4.1 -1.1
v 1 4.7 -0.1
v 1 4.7 -0.2
v 1 4.7 -1
v 1 4.7 -1.1
v 1.1 3.9 -0.4
v 1.1 3.9 -0.8
v 1.1 4.1 -0.2
v 1.1 4.1 -0.3
v 1.1 4.1 -0.4
v 1.1 4.1 -0.8
v 1.1 4.1 -0.9
v 1.1 4.1 -1
v 1.1 4.7 -0.2
v 1.1 4.7 -0.3
v 1.1 4.7 -0.9
v 1.1 4.7 -1
v 1.2 4.1 -0.3
v 1.2 4.1 -0.9
v 1.2 4.7 -0.3
v 1.2 4.7 -0.9
v 0.3 4.1 0
v 0.3 4.7 0
v 0.9 4.1 0
v 0.9 4.7 0
v 0.2 4.1 -0.1
v 0.2 4.7 -0.1
v 0.3 4.1 -0.1
v 0.3 4.7 -0.1
v 0.4 3.9 -0.1
v 0.4 4.1 -0.1
v 0.8 3.9 -0.1
v 0.8 4.1 -0.1
v 0.9 4.1 -0.1
v 0.9 4.7 -0.1
v 1 4.1 -0.1
v 1 4.7 -0.1
v 0.1 4.1 -0.2
v 0.1 4.7 -0.2
v 0.2 4.1 -0.2
v 0.2 4.7 -0.2
v 0.3 3.9 -0.2
v 0.3 4.1 -0.2
v 0.4 3.9 -0.2
v 0.4 4.1 -0.2
v 0.5 2 -0.2
v 0.5 3.9 -0.2
v 0.7 2 -0.2
v 0.7 3.9 -0.2
v 0.8 3.9 -0.2
v 0.8 4.1 -0.2
v 0.9 3.9 -0.2
v 0.9 4.1 -0.2
v 1 4.1 -0.2
v 1 4.7 -0.2
v 1.1 4.1 -0.2
v 1.1 4.7 -0.2
v 0 4.1 -0.3
v 0 4.7 -0.3
v 0.1 4.1 -0.3
v 0.1 4.7 -0.3
v 0.2 3.9 -0.3
v 0.2 4.1 -0.3
v 0.3 3.9 -0.3
v 0.3 4.1 -0.3
v 0.4 2 -0.3
v 0.4 3.9 -0.3
v 0.5 2 -0.3
v 0.5 3.9 -0.3
v 0.7 2 -0.3
v 0.7 3.9 -0.3
v 0.8 2 -0.3
v 0.8 3.9 -0.3
v 0.9 3.9 -0.3
v 0.9 4.1 -0.3
v 1 3.9 -0.3
v 1 4.1 -0.3
v 1.1 4.1 -0.3
v 1.1 4.7 -0.3
v 1.2 4.1 -0.3
v 1.2 4.7 -0.3
v 0.1 3.9 -0.4
v 0.1 4.1 -0.4
v 0.2 3.9 -0.4
v 0.2 4.1 -0.4
v 0.3 2 -0.4
v 0.3 3.9 -0.4
v 0.4 2 -0.4
v 0.4 3.9 -0.4
v 0.8 2 -0.4
v 0.8 3.9 -0.4
v 0.9 2 -0.4
v 0.9 3.9 -0.4
v 1 3.9 -0.4
v 1 4.1 -0.4
v 1.1 3.9 -0.4
v 1.1 4.1 -0.4
v 0.2 2 -0.5
v 0.2 3.9 -0.5
v 0.3 2 -0.5
v 0.3 3.9 -0.5
v 0.5 4.4 -0.5
v 0.5 4.5 -0.5
v 0.7 4.4 -0.5
v 0.7 4.5 -0.5
v 0.9 2 -0.5
v 0.9 3.9 -0.5
v 1 2 -0.5
v 1 3.9 -0.5
v 0.2 4.5 -0.8
v 0.2 4.6 -0.8
v 0.3 4.5 -0.8
v 0.3 4.6 -0.8
v 0.4 4.4 -0.8
v 0.4 4.5 -0.8
v 0.8 4.4 -0.8
v 0.8 4.5 -0.8
v 0.9 4.5 -0.8
v 0.9 4.6 -0.8
v 1 4.5 -0.8
v 1 4.6 -0.8
v 0.1 4.6 -0.9
v 0.1 4.7 -0.9
v 0.2 4.6 -0.9
v 0.2 4.7 -0.9
v 0.3 4.5 -0.9
v 0.3 4.6 -0.9
v 0.4 4.5 -0.9
v 0.4 4.6 -0.9
v 0.8 4.5 -0.9
v 0.8 4.6 -0.9
v 0.9 4.5 -0.9
v 0.9 4.6 -0.9
v 1 4.6 -0.9
v 1 4.7 -0.9
v 1.1 4.6 -0.9
v 1.1 4.7 -0.9
v 0.2 4.6 -1
v 0.2 4.7 -1
v 0.3 4.6 -1
v 0.3 4.7 -1
v 0.4 4.5 -1
v 0.4 4.6 -1
v 0.8 4.5 -1
v 0.8 4.6 -1
v 0.9 4.6 -1
v 0.9 4.7 -1
v 1 4.6 -1
v 1 4.7 -1
v 0.3 4.6 -1.1
v 0.3 4.7 -1.1
v 0.9 4.6 -1.1
v 0.9 4.7 -1.1
v 0.3 4.6 -0.1
v 0.3 4.7 -0.1
v 0.9 4.6 -0.1
v 0.9 4.7 -0.1
v 0.2 4.6 -0.2
v 0.2 4.7 -0.2
v 0.3 4.6 -0.2
v 0.3 4.7 -0.2
v 0.4 4.5 -0.2
v 0.4 4.6 -0.2
v 0.8 4.5 -0.2
v 0.8 4.6 -0.2
v 0.9 4.6 -0.2
v 0.9 4.7 -0.2
v 1 4.6 -0.2
v 1 4.7 -0.2
v 0.1 4.6 -0.3
v 0.1 4.7 -0.3
v 0.2 4.6 -0.3
v 0.2 4.7 -0.3
v 0.3 4.5 -0.3
v 0.3 4.6 -0.3
v 0.4 4.5 -0.3
v 0.4 4.6 -0.3
v 0.8 4.5 -0.3
v 0.8 4.6 -0.3
v 0.9 4.5 -0.3
v 0.9 4.6 -0.3
v 1 4.6 -0.3
v 1 4.7 -0.3
v 1.1 4.6 -0.3
v 1.1 4.7 -0.3
v 0.2 4.5 -0.4
v 0.2 4.6 -0.4
v 0.3 4.5 -0.4
v 0.3 4.6 -0.4
v 0.4 4.4 -0.4
v 0.4 4.5 -0.4
v 0.8 4.4 -0.4
v 0.8 4.5 -0.4
v 0.9 4.5 -0.4
v 0.9 4.6 -0.4
v 1 4.5 -0.4
v 1 4.6 -0.4
v 0.2 2 -0.7
v 0.2 3.9 -0.7
v 0.3 2 -0.7
v 0.3 3.9 -0.7
v 0.5 4.4 -0.7
v 0.5 4.5 -0.7
v 0.7 4.4 -0.7
v 0.7 4.5 -0.7
v 0.9 2 -0.7
v 0.9 3.9 -0.7
v 1 2 -0.7
v 1 3.9 -0.7
v 0.1 3.9 -0.8
v 0.1 4.1 -0.8
v 0.2 3.9 -0.8
v 0.2 4.1 -0.8
v 0.3 2 -0.8
v 0.3 3.9 -0.8
v 0.4 2 -0.8
v 0.4 3.9 -0.8
v 0.8 2 -0.8
v 0.8 3.9 -0.8
v 0.9 2 -0.8
v 0.9 3.9 -0.8
v 1 3.9 -0.8
v 1 4.1 -0.8
v 1.1 3.9 -0.8
v 1.1 4.1 -0.8
v 0 4.1 -0.9
v 0 4.7 -0.9
v 0.1 4.1 -0.9
v 0.1 4.7 -0.9
v 0.2 3.9 -0.9
v 0.2 4.1 -0.9
v 0.3 3.9 -0.9
v 0.3 4.1 -0.9
v 0.4 2 -0.9
v 0.4 3.9 -0.9
v 0.5 2 -0.9
v 0.5 3.9 -0.9
v 0.7 2 -0.9
v 0.7 3.9 -0.9
v 0.8 2 -0.9
v 0.8 3.9 -0.9
v 0.9 3.9 -0.9
v 0.9 4.1 -0.9
v 1 3.9 -0.9
v 1 4.1 -0.9
v 1.1 4.1 -0.9
v 1.1 4.7 -0.9
v 1.2 4.1 -0.9
v 1.2 4.7 -0.9
v 0.1 4.1 -1
v 0.1 4.7 -1
v 0.2 4.1 -1
v 0.2 4.7 -1
v 0.3 3.9 -1
v 0.3 4.1 -1
v 0.4 3.9 -1
v 0.4 4.1 -1
v 0.5 2 -1
v 0.5 3.9 -1
v 0.7 2 -1
v 0.7 3.9 -1
v 0.8 3.9 -1
v 0.8 4.1 -1
v 0.9 3.9 -1
v 0.9 4.1 -1
v 1 4.1 -1
v 1 4.7 -1
v 1.1 4.1 -1
v 1.1 4.7 -1
v 0.2 4.1 -1.1
v 0.2 4.7 -1.1
v 0.3 4.1 -1.1
v 0.3 4.7 -1.1
v 0.4 3.9 -1.1
v 0.4 4.1 -1.1
v 0.8 3.9 -1.1
v 0.8 4.1 -1.1
v 0.9 4.1 -1.1
v 0.9 4.7 -1.1
v 1 4.1 -1.1
v 1 4.7 -1.1
v 0.3 4.1 -1.2
v 0.3 4.7 -1.2
v 0.9 4.1 -1.2
v 0.9 4.7 -1.2
v 0.5 2 -0.2
v 0.7 2 -0.2
v 0.4 2 -0.3
v 0.5 2 -0.3
v 0.7 2 -0.3
v 0.8 2 -0.3
v 0.3 2 -0.4
v 0.4 2 -0.4
v 0.8 2 -0.4
v 0.9 2 -0.4
v 0.2 2 -0.5
v 0.3 2 -0.5
v 0.9 2 -0.5
v 1 2 -0.5
v 0.2 2 -0.7
v 0.3 2 -0.7
v 0.9 2 -0.7
v 1 2 -0.7
v 0.3 2 -0.8
v 0.4 2 -0.8
v 0.8 2 -0.8
v 0.9 2 -0.8
v 0.4 2 -0.9
v 0.5 2 -0.9
v 0.7 2 -0.9
v 0.8 2 -0.9
v 0.5 2 -1
v 0.7 2 -1
v 0.4 3.9 -0.1
v 0.8 3.9 -0.1
v 0.3 3.9 -0.2
v 0.4 3.9 -0.2
v 0.5 3.9 -0.2
v 0.7 3.9 -0.2
v 0.8 3.9 -0.2
v 0.9 3.9 -0.2
v 0.2 3.9 -0.3
v 0.3 3.9 -0.3
v 0.4 3.9 -0.3
v 0.5 3.9 -0.3
v 0.7 3.9 -0.3
v 0.8 3.9 -0.3
v 0.9 3.9 -0.3
v 1 3.9 -0.3
v 0.1 3.9 -0.4
v 0.2 3.9 -0.4
v 0.3 3.9 -0.4
v 0.4 3.9 -0.4
v 0.8 3.9 -0.4
v 0.9 3.9 -0.4
v 1 3.9 -0.4
v 1.1 3.9 -0.4
v 0.2 3.9 -0.5
v 0.3 3.9 -0.5
v 0.9 3.9 -0.5
v 1 3.9 -0.5
v 0.2 3.9 -0.7
v 0.3 3.9 -0.7
v 0.9 3.9 -0.7
v 1 3.9 -0.7
v 0.1 3.9 -0.8
v 0.2 3.9 -0.8
v 0.3 3.9 -0.8
v 0.4 3.9 -0.8
v 0.8 3.9 -0.8
v 0.9 3.9 -0.8
v 1 3.9 -0.8
v 1.1 3.9 -0.8
v 0.2 3.9 -0.9
v 0.3 3.9 -0.9
v 0.4 3.9 -0.9
v 0.5 3.9 -0.9
v 0.7 3.9 -0.9
v 0.8 3.9 -0.9
v 0.9 3.9 -0.9
v 1 3.9 -0.9
v 0.3 3.9 -1
v 0.4 3.9 -1
v 0.5 3.9 -1
v 0.7 3.9 -1
v 0.8 3.9 -1
v 0.9 3.9 -1
v 0.4 3.9 -1.1
v 0.8 3.9 -1.1
v 0.3 4.1 0
v 0.9 4.1 0
v 0.2 4.1 -0.1
v 0.3 4.1 -0.1
v 0.4 4.1 -0.1
v 0.8 4.1 -0.1
v 0.9 4.1 -0.1
v 1 4.1 -0.1
v 0.1 4.1 -0.2
v 0.2 4.1 -0.2
v 0.3 4.1 -0.2
v 0.4 4.1 -0.2
v 0.8 4.1 -0.2
v 0.9 4.1 -0.2
v 1 4.1 -0.2
v 1.1 4.1 -0.2
v 0 4.1 -0.3
v 0.1 4.1 -0.3
v 0.2 4.1 -0.3
v 0.3 4.1 -0.3
v 0.9 4.1 -0.3
v 1 4.1 -0.3
v 1.1 4.1 -0.3
v 1.2 4.1 -0.3
v 0.1 4.1 -0.4
v 0.2 4.1 -0.4
v 1 4.1 -0.4
v 1.1 4.1 -0.4
v 0.1 4.1 -0.8
v 0.2 4.1 -0.8
v 1 4.1 -0.8
v 1.1 4.1 -0.8
v 0 4.1 -0.9
v 0.1 4.1 -0.9
v 0.2 4.1 -0.9
v 0.3 4.1 -0.9
v 0.9 4.1 -0.9
v 1 4.1 -0.9
v 1.1 4.1 -0.9
v 1.2 4.1 -0.9
v 0.1 4.1 -1
v 0.2 4.1 -1
v 0.3 4.1 -1
v 0.4 4.1 -1
v 0.8 4.1 -1
v 0.9 4.1 -1
v 1 4.1 -1
v 1.1 4.1 -1
v 0.2 4.1 -1.1
v 0.3 4.1 -1.1
v 0.4 4.1 -1.1
v 0.8 4.1 -1.1
v 0.9 4.1 -1.1
v 1 4.1 -1.1
v 0.3 4.1 -1.2
v 0.9 4.1 -1.2
v 0.4 4.4 -0.4
v 0.8 4.4 -0.4
v 0.5 4.4 -0.5
v 0.7 4.4 -0.5
v 0.5 4.4 -0.7
v 0.7 4.4 -0.7
v 0.4 4.4 -0.8
v 0.8 4.4 -0.8
v 0.4 4.5 -0.2
v 0.8 4.5 -0.2
v 0.3 4.5 -0.3
v 0.4 4.5 -0.3
v 0.8 4.5 -0.3
v 0.9 4.5 -0.3
v 0.2 4.5 -0.4
v 0.3 4.5 -0.4
v 0.4 4.5 -0.4
v 0.8 4.5 -0.4
v 0.9 4.5 -0.4
v 1 4.5 -0.4
v 0.5 4.5 -0.5
v 0.7 4.5 -0.5
v 0.5 4.5 -0.7
v 0.7 4.5 -0.7
v 0.2 4.5 -0.8
v 0.3 4.5 -0.8
v 0.4 4.5 -0.8
v 0.8 4.5 -0.8
v 0.9 4.5 -0.8
v 1 4.5 -0.8
v 0.3 4.5 -0.9
v 0.4 4.5 -0.9
v 0.8 4.5 -0.9
v 0.9 4.5 -0.9
v 0.4 4.5 -1
v 0.8 4.5 -1
v 0.3 4.6 -0.1
v 0.9 4.6 -0.1
v 0.2 4.6 -0.2
v 0.3 4.6 -0.2
v 0.4 4.6 -0.2
v 0.8 4.6 -0.2
v 0.9 4.6 -0.2
v 1 4.6 -0.2
v 0.1 4.6 -0.3
v 0.2 4.6 -0.3
v 0.3 4.6 -0.3
v 0.4 4.6 -0.3
v 0.8 4.6 -0.3
v 0.9 4.6 -0.3
v 1 4.6 -0.3
v 1.1 4.6 -0.3
v 0.2 4.6 -0.4
v 0.3 4.6 -0.4
v 0.9 4.6 -0.4
v 1 4.6 -0.4
v 0.2 4.6 -0.8
v 0.3 4.6 -0.8
v 0.9 4.6 -0.8
v 1 4.6 -0.8
v 0.1 4.6 -0.9
v 0.2 4.6 -0.9
v 0.3 4.6 -0.9
v 0.4 4.6 -0.9
v 0.8 4.6 -0.9
v 0.9 4.6 -0.9
v 1 4.6 -0.9
v 1.1 4.6 -0.9
v 0.2 4.6 -1
v 0.3 4.6 -1
v 0.4 4.6 -1
v 0.8 4.6 -1
v 0.9 4.6 -1
v 1 4.6 -1
v 0.3 4.6 -1.1
v 0.9 4.6 -1.1
v 0.3 4.7 0
v 0.9 4.7 0
v 0.2 4.7 -0.1
v 0.3 4.7 -0.1
v 0.9 4.7 -0.1
v 1 4.7 -0.1
v 0.1 4.7 -0.2
v 0.2 4.7 -0.2
v 0.3 4.7 -0.2
v 0.9 4.7 -0.2
v 1 4.7 -0.2
v 1.1 4.7 -0.2
v 0 4.7 -0.3
v 0.1 4.7 -0.3
v 0.2 4.7 -0.3
v 1 4.7 -0.3
v 1.1 4.7 -0.3
v 1.2 4.7 -0.3
v 0 4.7 -0.9
v 0.1 4.7 -0.9
v 0.2 4.7 -0.9
v 1 4.7 -0.9
v 1.1 4.7 -0.9
v 1.2 4.7 -0.9
v 0.1 4.7 -1
v 0.2 4.7 -1
v 0.3 4.7 -1
v 0.9 4.7 -1
v 1 4.7 -1
v 1.1 4.7 -1
v 0.2 4.7 -1.1
v 0.3 4.7 -1.1
v 0.9 4.7 -1.1
v 1 4.7 -1.1
v 0.3 4.7 -1.2
v 0.9 4.7 -1.2

# faces
f 3/2/1 2/2/1 1/2/1
f 4/2/1 2/2/1 3/2/1
f 9/2/1 6/2/1 5/2/1
f 10/2/1 6/2/1 9/2/1
f 13/2/1 8/2/1 7/2/1
f 14/2/1 8/2/1 13/2/1
f 15/2/1 12/2/1 11/2/1
f 16/2/1 12/2/1 15/2/1
f 21/3/1 18/3/1 17/3/1
f 22/3/1 18/3/1 21/3/1
f 27/2/1 20/2/1 19/2/1
f 28/2/1 20/2/1 27/2/1
f 29/2/1 24/2/1 23/2/1
f 30/2/1 24/2/1 29/2/1
f 33/2/1 26/2/1 25/2/1
f 34/2/1 26/2/1 33/2/1
f 35/2/1 32/2/1 31/2/1
f 36/2/1 32/2/1 35/2/1
f 43/3/1 38/3/1 37/3/1
f 44/3/1 38/3/1 43/3/1
f 45/3/1 40/3/1 39/3/1
f 46/3/1 40/3/1 45/3/1
f 51/2/1 42/2/1 41/2/1
f 52/2/1 42/2/1 51/2/1
f 53/2/1 48/2/1 47/2/1
f 54/2/1 48/2/1 53/2/1
f 57/2/1 50/2/1 49/2/1
f 58/2/1 50/2/1 57/2/1
f 59/2/1 56/2/1 55/2/1
f 60/2/1 56/2/1 59/2/1
f 67/3/1 62/3/1 61/3/1
f 68/3/1 62/3/1 67/3/1
f 69/3/1 64/3/1 63/3/1
f 70/3/1 64/3/1 69/3/1
f 73/2/1 66/2/1 65/2/1
f 74/2/1 66/2/1 73/2/1
f 75/2/1 72/2/1 71/2/1
f 76/2/1 72/2/1 75/2/1
f 81/3/1 78/3/1 77/3/1
f 82/3/1 78/3/1 81/3/1
f 83/3/1 80/3/1 79/3/1
f 84/3/1 80/3/1 83/3/1
f 87/1/1 86/1/1 85/1/1
f 88/1/1 86/1/1 87/1/1
f 93/2/1 90/2/1 89/2/1
f 94/2/1 90/2/1 93/2/1
f 97/2/1 92/2/1 91/2/1
f 98/2/1 92/2/1 97/2/1
f 99/2/1 96/2/1 95/2/1
f 100/2/1 96/2/1 99/2/1
f 107/2/1 102/2/1 101/2/1
f 108/2/1 102/2/1 107/2/1
f 109/2/1 104/2/1 103/2/1
f 110/2/1 104/2/1 109/2/1
f 113/2/1 106/2/1 105/2/1
f 114/2/1 106/2/1 113/2/1
f 115/2/1 112/2/1 111/2/1
f 116/2/1 112/2/1 115/2/1
f 121/2/1 118/2/1 117/2/1
f 122/2/1 118/2/1 121/2/1
f 125/2/1 120/2/1 119/2/1
f 126/2/1 120/2/1 125/2/1
f 127/2/1 124/2/1 123/2/1
f 128/2/1 124/2/1 127/2/1
f 131/2/1 130/2/1 129/2/1
f 132/2/1 130/2/1 131/2/1
f 133/2/2 134/2/2 135/2/2
f 135/2/2 134/2/2 136/2/2
f 137/2/2 138/2/2 141/2/2
f 141/2/2 138/2/2 142/2/2
f 139/2/2 140/2/2 145/2/2
f 145/2/2 140/2/2 146/2/2
f 143/2/2 144/2/2 147/2/2
f 147/2/2 144/2/2 148/2/2
f 149/2/2 150/2/2 155/2/2
f 155/2/2 150/2/2 156/2/2
f 151/2/2 152/2/2 157/2/2
f 157/2/2 152/2/2 158/2/2
f 153/2/2 154/2/2 161/2/2
f 161/2/2 154/2/2 162/2/2
f 159/2/2 160/2/2 163/2/2
f 163/2/2 160/2/2 164/2/2
f 165/2/2 166/2/2 169/2/2
f 169/2/2 166/2/2 170/2/2
f 167/2/2 168/2/2 173/2/2
f 173/2/2 168/2/2 174/2/2
f 171/2/2 172/2/2 175/2/2
f 175/2/2 172/2/2 176/2/2
f 177/3/2 178/3/2 181/3/2
f 181/3/2 178/3/2 182/3/2
f 179/3/2 180/3/2 183/3/2
f 183/3/2 180/3/2 184/3/2
f 185/1/2 186/1/2 187/1/2
f 187/1/2 186/1/2 188/1/2
f 189/3/2 190/3/2 195/3/2
f 195/3/2 190/3/2 196/3/2
f 191/3/2 192/3/2 197/3/2
f 197/3/2 192/3/2 198/3/2
f 193/2/2 194/2/2 201/2/2
f 201/2/2 194/2/2 202/2/2
f 199/2/2 200/2/2 203/2/2
f 203/2/2 200/2/2 204/2/2
f 205/3/2 206/3/2 211/3/2
f 211/3/2 206/3/2 212/3/2
f 207/3/2 208/3/2 213/3/2
f 213/3/2 208/3/2 214/3/2
f 209/2/2 210/2/2 219/2/2
f 219/2/2 210/2/2 220/2/2
f 215/2/2 216/2/2 221/2/2
f 221/2/2 216/2/2 222/2/2
f 217/2/2 218/2/2 225/2/2
f 225/2/2 218/2/2 226/2/2
f 223/2/2 224/2/2 227/2/2
f 227/2/2 224/2/2 228/2/2
f 229/3/2 230/3/2 233/3/2
f 233/3/2 230/3/2 234/3/2
f 231/2/2 232/2/2 239/2/2
f 239/2/2 232/2/2 240/2/2
f 235/2/2 236/2/2 241/2/2
f 241/2/2 236/2/2 242/2/2
f 237/2/2 238/2/2 245/2/2
f 245/2/2 238/2/2 246/2/2
f 243/2/2 244/2/2 247/2/2
f 247/2/2 244/2/2 248/2/2
f 249/2/2 250/2/2 253/2/2
f 253/2/2 250/2/2 254/2/2
f 251/2/2 252/2/2 257/2/2
f 257/2/2 252/2/2 258/2/2
f 255/2/2 256/2/2 259/2/2
f 259/2/2 256/2/2 260/2/2
f 261/2/2 262/2/2 263/2/2
f 263/2/2 262/2/2 264/2/2
f 267/2/3 266/2/3 265/2/3
f 268/2/3 266/2/3 267/2/3
f 271/2/3 270/2/3 269/2/3
f 272/2/3 270/2/3 271/2/3
f 275/2/3 274/2/3 273/2/3
f 276/2/3 274/2/3 275/2/3
f 279/2/3 278/2/3 277/2/3
f 280/2/3 278/2/3 279/2/3
f 283/2/3 282/2/3 281/2/3
f 284/2/3 282/2/3 283/2/3
f 287/2/3 286/2/3 285/2/3
f 288/2/3 286/2/3 287/2/3
f 291/3/3 290/3/3 289/3/3
f 292/3/3 290/3/3 291/3/3
f 295/2/3 294/2/3 293/2/3
f 296/2/3 294/2/3 295/2/3
f 299/2/3 298/2/3 297/2/3
f 300/2/3 298/2/3 299/2/3
f 303/2/3 302/2/3 301/2/3
f 304/2/3 302/2/3 303/2/3
f 307/2/3 306/2/3 305/2/3
f 308/2/3 306/2/3 307/2/3
f 311/3/3 310/3/3 309/3/3
f 312/3/3 310/3/3 311/3/3
f 315/3/3 314/3/3 313/3/3
f 316/3/3 314/3/3 315/3/3
f 319/2/3 318/2/3 317/2/3
f 320/2/3 318/2/3 319/2/3
f 323/2/3 322/2/3 321/2/3
f 324/2/3 322/2/3 323/2/3
f 327/2/3 326/2/3 325/2/3
f 328/2/3 326/2/3 327/2/3
f 331/3/3 330/3/3 329/3/3
f 332/3/3 330/3/3 331/3/3
f 335/3/3 334/3/3 333/3/3
f 336/3/3 334/3/3 335/3/3
f 339/2/3 338/2/3 337/2/3
f 340/2/3 338/2/3 339/2/3
f 343/3/3 342/3/3 341/3/3
f 344/3/3 342/3/3 343/3/3
f 347/1/3 346/1/3 345/1/3
f 348/1/3 346/1/3 347/1/3
f 351/3/3 350/3/3 349/3/3
f 352/3/3 350/3/3 351/3/3
f 355/2/3 354/2/3 353/2/3
f 356/2/3 354/2/3 355/2/3
f 359/2/3 358/2/3 357/2/3
f 360/2/3 358/2/3 359/2/3
f 363/2/3 362/2/3 361/2/3
f 364/2/3 362/2/3 363/2/3
f 367/2/3 366/2/3 365/2/3
f 368/2/3 366/2/3 367/2/3
f 371/2/3 370/2/3 369/2/3
f 372/2/3 370/2/3 371/2/3
f 375/2/3 374/2/3 373/2/3
f 376/2/3 374/2/3 375/2/3
f 379/2/3 378/2/3 377/2/3
f 380/2/3 378/2/3 379/2/3
f 383/2/3 382/2/3 381/2/3
f 384/2/3 382/2/3 383/2/3
f 387/2/3 386/2/3 385/2/3
f 388/2/3 386/2/3 387/2/3
f 391/2/3 390/2/3 389/2/3
f 392/2/3 390/2/3 391/2/3
f 395/2/3 394/2/3 393/2/3
f 396/2/3 394/2/3 395/2/3
f 397/2/4 398/2/4 399/2/4
f 399/2/4 398/2/4 400/2/4
f 401/2/4 402/2/4 403/2/4
f 403/2/4 402/2/4 404/2/4
f 405/2/4 406/2/4 407/2/4
f 407/2/4 406/2/4 408/2/4
f 409/2/4 410/2/4 411/2/4
f 411/2/4 410/2/4 412/2/4
f 413/2/4 414/2/4 415/2/4
f 415/2/4 414/2/4 416/2/4
f 417/2/4 418/2/4 419/2/4
f 419/2/4 418/2/4 420/2/4
f 421/2/4 422/2/4 423/2/4
f 423/2/4 422/2/4 424/2/4
f 425/2/4 426/2/4 427/2/4
f 427/2/4 426/2/4 428/2/4
f 429/2/4 430/2/4 431/2/4
f 431/2/4 430/2/4 432/2/4
f 433/2/4 434/2/4 435/2/4
f 435/2/4 434/2/4 436/2/4
f 437/2/4 438/2/4 439/2/4
f 439/2/4 438/2/4 440/2/4
f 441/3/4 442/3/4 443/3/4
f 443/3/4 442/3/4 444/3/4
f 445/1/4 446/1/4 447/1/4
f 447/1/4 446/1/4 448/1/4
f 449/3/4 450/3/4 451/3/4
f 451/3/4 450/3/4 452/3/4
f 453/2/4 454/2/4 455/2/4
f 455/2/4 454/2/4 456/2/4
f 457/3/4 458/3/4 459/3/4
f 459/3/4 458/3/4 460/3/4
f 461/3/4 462/3/4 463/3/4
f 463/3/4 462/3/4 464/3/4
f 465/2/4 466/2/4 467/2/4
f 467/2/4 466/2/4 468/2/4
f 469/2/4 470/2/4 471/2/4
f 471/2/4 470/2/4 472/2/4
f 473/2/4 474/2/4 475/2/4
f 475/2/4 474/2/4 476/2/4
f 477/3/4 478/3/4 479/3/4
f 479/3/4 478/3/4 480/3/4
f 481/3/4 482/3/4 483/3/4
f 483/3/4 482/3/4 484/3/4
f 485/2/4 486/2/4 487/2/4
f 487/2/4 486/2/4 488/2/4
f 489/2/4 490/2/4 491/2/4
f 491/2/4 490/2/4 492/2/4
f 493/2/4 494/2/4 495/2/4
f 495/2/4 494/2/4 496/2/4
f 497/2/4 498/2/4 499/2/4
f 499/2/4 498/2/4 500/2/4
f 501/3/4 502/3/4 503/3/4
f 503/3/4 502/3/4 504/3/4
f 505/2/4 506/2/4 507/2/4
f 507/2/4 506/2/4 508/2/4
f 509/2/4 510/2/4 511/2/4
f 511/2/4 510/2/4 512/2/4
f 513/2/4 514/2/4 515/2/4
f 515/2/4 514/2/4 516/2/4
f 517/2/4 518/2/4 519/2/4
f 519/2/4 518/2/4 520/2/4
f 521/2/4 522/2/4 523/2/4
f 523/2/4 522/2/4 524/2/4
f 525/2/4 526/2/4 527/2/4
f 527/2/4 526/2/4 528/2/4
f 532/3/5 530/3/5 529/3/5
f 533/3/5 530/3/5 532/3/5
f 536/3/5 532/3/5 531/3/5
f 536/3/5 534/3/5 533/3/5
f 536/3/5 533/3/5 532/3/5
f 537/3/5 534/3/5 536/3/5
f 540/3/5 536/3/5 535/3/5
f 540/3/5 538/3/5 537/3/5
f 540/3/5 537/3/5 536/3/5
f 541/3/5 538/3/5 540/3/5
f 543/3/5 540/3/5 539/3/5
f 543/3/5 542/3/5 541/3/5
f 543/3/5 541/3/5 540/3/5
f 544/3/5 542/3/5 543/3/5
f 545/3/5 542/3/5 544/3/5
f 546/3/5 542/3/5 545/3/5
f 547/3/5 545/3/5 544/3/5
f 548/3/5 545/3/5 547/3/5
f 549/3/5 545/3/5 548/3/5
f 550/3/5 545/3/5 549/3/5
f 551/3/5 549/3/5 548/3/5
f 552/3/5 549/3/5 551/3/5
f 553/3/5 549/3/5 552/3/5
f 554/3/5 549/3/5 553/3/5
f 555/3/5 553/3/5 552/3/5
f 556/3/5 553/3/5 555/3/5
f 560/2/5 558/2/5 557/2/5
f 561/2/5 558/2/5 560/2/5
f 562/2/5 558/2/5 561/2/5
f 563/2/5 558/2/5 562/2/5
f 566/2/5 560/2/5 559/2/5
f 566/2/5 561/2/5 560/2/5
f 567/2/5 561/2/5 566/2/5
f 568/2/5 561/2/5 567/2/5
f 569/2/5 563/2/5 562/2/5
f 569/2/5 564/2/5 563/2/5
f 570/2/5 564/2/5 569/2/5
f 571/2/5 564/2/5 570/2/5
f 574/2/5 567/2/5 566/2/5
f 574/2/5 566/2/5 565/2/5
f 575/2/5 567/2/5 574/2/5
f 576/2/5 567/2/5 575/2/5
f 577/2/5 572/2/5 571/2/5
f 577/2/5 571/2/5 570/2/5
f 578/2/5 572/2/5 577/2/5
f 579/2/5 572/2/5 578/2/5
f 581/2/5 575/2/5 574/2/5
f 581/2/5 574/2/5 573/2/5
f 582/2/5 575/2/5 581/2/5
f 583/2/5 580/2/5 579/2/5
f 583/2/5 579/2/5 578/2/5
f 584/2/5 580/2/5 583/2/5
f 585/2/5 581/2/5 573/2/5
f 588/2/5 580/2/5 584/2/5
f 589/2/5 586/2/5 585/2/5
f 589/2/5 585/2/5 573/2/5
f 590/2/5 586/2/5 589/2/5
f 591/2/5 586/2/5 590/2/5
f 594/2/5 588/2/5 587/2/5
f 595/2/5 580/2/5 588/2/5
f 595/2/5 588/2/5 594/2/5
f 596/2/5 580/2/5 595/2/5
f 597/2/5 592/2/5 591/2/5
f 597/2/5 591/2/5 590/2/5
f 598/2/5 592/2/5 597/2/5
f 599/2/5 592/2/5 598/2/5
f 602/2/5 594/2/5 593/2/5
f 602/2/5 595/2/5 594/2/5
f 603/2/5 595/2/5 602/2/5
f 604/2/5 595/2/5 603/2/5
f 605/2/5 600/2/5 599/2/5
f 605/2/5 599/2/5 598/2/5
f 606/2/5 600/2/5 605/2/5
f 607/2/5 600/2/5 606/2/5
f 608/2/5 603/2/5 602/2/5
f 608/2/5 602/2/5 601/2/5
f 609/2/5 603/2/5 608/2/5
f 610/2/5 603/2/5 609/2/5
f 611/2/5 607/2/5 606/2/5
f 611/2/5 609/2/5 608/2/5
f 611/2/5 608/2/5 607/2/5
f 612/2/5 609/2/5 611/2/5
f 616/2/5 614/2/5 613/2/5
f 617/2/5 614/2/5 616/2/5
f 618/2/5 614/2/5 617/2/5
f 619/2/5 614/2/5 618/2/5
f 622/2/5 616/2/5 615/2/5
f 622/2/5 617/2/5 616/2/5
f 623/2/5 617/2/5 622/2/5
f 624/2/5 617/2/5 623/2/5
f 625/2/5 619/2/5 618/2/5
f 625/2/5 620/2/5 619/2/5
f 626/2/5 620/2/5 625/2/5
f 627/2/5 620/2/5 626/2/5
f 630/2/5 623/2/5 622/2/5
f 630/2/5 622/2/5 621/2/5
f 631/2/5 623/2/5 630/2/5
f 632/2/5 623/2/5 631/2/5
f 633/2/5 628/2/5 627/2/5
f 633/2/5 627/2/5 626/2/5
f 634/2/5 628/2/5 633/2/5
f 635/2/5 628/2/5 634/2/5
f 637/2/5 631/2/5 630/2/5
f 637/2/5 630/2/5 629/2/5
f 638/2/5 631/2/5 637/2/5
f 639/2/5 636/2/5 635/2/5
f 639/2/5 635/2/5 634/2/5
f 640/2/5 636/2/5 639/2/5
f 641/2/5 637/2/5 629/2/5
f 644/2/5 636/2/5 640/2/5
f 645/2/5 642/2/5 641/2/5
f 645/2/5 641/2/5 629/2/5
f 646/2/5 642/2/5 645/2/5
f 647/2/5 642/2/5 646/2/5
f 650/2/5 644/2/5 643/2/5
f 651/2/5 636/2/5 644/2/5
f 651/2/5 644/2/5 650/2/5
f 652/2/5 636/2/5 651/2/5
f 653/2/5 648/2/5 647/2/5
f 653/2/5 647/2/5 646/2/5
f 654/2/5 648/2/5 653/2/5
f 655/2/5 648/2/5 654/2/5
f 658/2/5 650/2/5 649/2/5
f 658/2/5 651/2/5 650/2/5
f 659/2/5 651/2/5 658/2/5
f 660/2/5 651/2/5 659/2/5
f 661/2/5 656/2/5 655/2/5
f 661/2/5 655/2/5 654/2/5
f 662/2/5 656/2/5 661/2/5
f 663/2/5 656/2/5 662/2/5
f 664/2/5 659/2/5 658/2/5
f 664/2/5 658/2/5 657/2/5
f 665/2/5 659/2/5 664/2/5
f 666/2/5 659/2/5 665/2/5
f 667/2/5 663/2/5 662/2/5
f 667/2/5 665/2/5 664/2/5
f 667/2/5 664/2/5 663/2/5
f 668/2/5 665/2/5 667/2/5
f 669/2/6 670/2/6 671/2/6
f 671/2/6 670/2/6 672/2/6
f 669/2/6 671/2/6 673/2/6
f 672/2/6 670/2/6 674/2/6
f 669/2/6 673/2/6 675/2/6
f 673/2/6 674/2/6 675/2/6
f 674/2/6 670/2/6 676/2/6
f 675/2/6 674/2/6 676/2/6
f 677/2/6 678/2/6 680/2/6
f 680/2/6 678/2/6 681/2/6
f 679/2/6 680/2/6 684/2/6
f 681/2/6 682/2/6 684/2/6
f 680/2/6 681/2/6 684/2/6
f 684/2/6 682/2/6 685/2/6
f 685/2/6 682/2/6 686/2/6
f 686/2/6 682/2/6 687/2/6
f 689/1/6 690/1/6 691/1/6
f 691/1/6 690/1/6 692/1/6
f 683/2/6 684/2/6 693/2/6
f 684/2/6 685/2/6 693/2/6
f 693/2/6 685/2/6 694/2/6
f 694/2/6 685/2/6 695/2/6
f 687/2/6 688/2/6 696/2/6
f 686/2/6 687/2/6 696/2/6
f 696/2/6 688/2/6 697/2/6
f 697/2/6 688/2/6 698/2/6
f 694/2/6 695/2/6 699/2/6
f 696/2/6 697/2/6 699/2/6
f 695/2/6 696/2/6 699/2/6
f 699/2/6 697/2/6 700/2/6
f 700/2/6 697/2/6 701/2/6
f 701/2/6 697/2/6 702/2/6
f 700/2/6 701/2/6 703/2/6
f 703/2/6 701/2/6 704/2/6
f 705/2/6 706/2/6 708/2/6
f 708/2/6 706/2/6 709/2/6
f 709/2/6 706/2/6 710/2/6
f 710/2/6 706/2/6 711/2/6
f 707/2/6 708/2/6 714/2/6
f 708/2/6 709/2/6 714/2/6
f 714/2/6 709/2/6 715/2/6
f 715/2/6 709/2/6 716/2/6
f 710/2/6 711/2/6 717/2/6
f 711/2/6 712/2/6 717/2/6
f 717/2/6 712/2/6 718/2/6
f 718/2/6 712/2/6 719/2/6
f 714/2/6 715/2/6 721/2/6
f 713/2/6 714/2/6 721/2/6
f 721/2/6 715/2/6 722/2/6
f 719/2/6 720/2/6 723/2/6
f 718/2/6 719/2/6 723/2/6
f 723/2/6 720/2/6 724/2/6
f 713/2/6 721/2/6 725/2/6
f 724/2/6 720/2/6 728/2/6
f 725/2/6 726/2/6 729/2/6
f 713/2/6 725/2/6 729/2/6
f 729/2/6 726/2/6 730/2/6
f 730/2/6 726/2/6 731/2/6
f 727/2/6 728/2/6 734/2/6
f 728/2/6 720/2/6 735/2/6
f 734/2/6 728/2/6 735/2/6
f 735/2/6 720/2/6 736/2/6
f 731/2/6 732/2/6 737/2/6
f 730/2/6 731/2/6 737/2/6
f 737/2/6 732/2/6 738/2/6
f 738/2/6 732/2/6 739/2/6
f 733/2/6 734/2/6 740/2/6
f 734/2/6 735/2/6 740/2/6
f 740/2/6 735/2/6 741/2/6
f 741/2/6 735/2/6 742/2/6
f 738/2/6 739/2/6 743/2/6
f 740/2/6 741/2/6 743/2/6
f 739/2/6 740/2/6 743/2/6
f 743/2/6 741/2/6 744/2/6
f 745/2/6 746/2/6 748/2/6
f 748/2/6 746/2/6 749/2/6
f 747/2/6 748/2/6 752/2/6
f 752/2/6 748/2/6 753/2/6
f 749/2/6 750/2/6 754/2/6
f 754/2/6 750/2/6 755/2/6
f 751/2/6 752/2/6 758/2/6
f 758/2/6 752/2/6 759/2/6
f 755/2/6 756/2/6 760/2/6
f 760/2/6 756/2/6 761/2/6
f 757/2/6 758/2/6 763/2/6
f 763/2/6 758/2/6 764/2/6
f 761/2/6 762/2/6 767/2/6
f 767/2/6 762/2/6 768/2/6
f 764/2/6 765/2/6 769/2/6
f 769/2/6 765/2/6 770/2/6
f 766/2/6 767/2/6 773/2/6
f 773/2/6 767/2/6 774/2/6
f 770/2/6 771/2/6 775/2/6
f 775/2/6 771/2/6 776/2/6
f 772/2/6 773/2/6 777/2/6
f 777/2/6 773/2/6 778/2/6
f 776/2/6 777/2/6 779/2/6
f 779/2/6 777/2/6 780/2/6
